<svg width="900" height="900" viewBox="0 0 900 900" fill="none" xmlns="http://www.w3.org/2000/svg">
<rect width="900" height="900" fill="#1E1E1E"/>
<path d="M340.641 622.501L541.133 273.593L559.359 277.499L358.867 626.407L340.641 622.501ZM450 691.501C419.188 691.501 391.849 681.303 367.981 660.907C344.547 640.077 326.32 611.652 313.301 575.633C300.282 539.18 293.773 497.519 293.773 450.651C293.773 403.349 300.282 361.471 313.301 325.018C326.32 288.565 344.547 260.14 367.981 239.744C391.849 218.914 419.188 208.499 450 208.499C481.245 208.499 508.585 218.914 532.019 239.744C555.453 260.14 573.68 288.565 586.699 325.018C599.718 361.471 606.227 403.349 606.227 450.651C606.227 497.519 599.718 539.18 586.699 575.633C573.68 611.652 555.453 640.077 532.019 660.907C508.585 681.303 481.245 691.501 450 691.501ZM450 670.671C476.906 670.671 500.34 661.341 520.302 642.68C540.265 624.02 555.887 598.199 567.17 565.218C578.453 531.802 584.095 493.613 584.095 450.651C584.095 407.255 578.453 369.066 567.17 336.084C555.887 302.669 540.265 276.631 520.302 257.971C500.34 238.876 476.906 229.329 450 229.329C423.528 229.329 400.094 238.876 379.698 257.971C359.735 276.631 344.113 302.669 332.83 336.084C321.546 369.066 315.905 407.255 315.905 450.651C315.905 493.613 321.546 531.802 332.83 565.218C344.113 598.199 359.735 624.02 379.698 642.68C400.094 661.341 423.528 670.671 450 670.671Z" fill="#E7E5E4"/>
</svg>
